<?xml version="1.0" encoding="UTF-8" standalone="no"?>
<!DOCTYPE svg PUBLIC "-//W3C//DTD SVG 1.1//EN" "http://www.w3.org/Graphics/SVG/1.1/DTD/svg11.dtd">
<!-- Created with Vectornator (http://vectornator.io/) -->
<svg height="100%" stroke-miterlimit="10" style="fill-rule:nonzero;clip-rule:evenodd;stroke-linecap:round;stroke-linejoin:round;" version="1.1" viewBox="0 0 1000 1000" width="100%" xml:space="preserve" xmlns="http://www.w3.org/2000/svg" xmlns:xlink="http://www.w3.org/1999/xlink">
<defs/>
<clipPath id="ArtboardFrame">
<rect height="1000" width="1000" x="0" y="0"/>
</clipPath>
<g clip-path="url(#ArtboardFrame)" id="Layer-1">
<path d="M244.71 125.005L253.875 125.005C264.921 125.005 273.875 133.457 273.875 143.884L273.875 981.125C273.875 991.552 264.921 1000 253.875 1000L244.71 1000C233.664 1000 224.71 991.552 224.71 981.125L224.71 143.884C224.71 133.457 233.664 125.005 244.71 125.005Z" fill="#24ae00" fill-rule="nonzero" opacity="1" stroke="none"/>
<path d="M752.632 291.286L752.632 299.62C752.632 309.666 747.884 317.809 742.026 317.809L271.689 317.809C265.831 317.809 261.083 309.666 261.083 299.62L261.083 291.286C261.083 281.24 265.831 273.097 271.689 273.097L742.026 273.097C747.884 273.097 752.632 281.24 752.632 291.286Z" fill="#24ae00" fill-rule="nonzero" opacity="1" stroke="none"/>
<path d="M752.632 428.085L752.632 436.42C752.632 446.465 747.884 454.608 742.026 454.608L271.689 454.608C265.831 454.608 261.083 446.465 261.083 436.42L261.083 428.085C261.083 418.04 265.831 409.897 271.689 409.897L742.026 409.897C747.884 409.897 752.632 418.04 752.632 428.085Z" fill="#24ae00" fill-rule="nonzero" opacity="1" stroke="none"/>
<path d="M752.632 564.885L752.632 573.22C752.632 583.265 747.884 591.408 742.026 591.408L271.689 591.408C265.831 591.408 261.083 583.265 261.083 573.22L261.083 564.885C261.083 554.84 265.831 546.696 271.689 546.696L742.026 546.696C747.884 546.696 752.632 554.84 752.632 564.885Z" fill="#24ae00" fill-rule="nonzero" opacity="1" stroke="none"/>
<path d="M752.632 701.684L752.632 710.019C752.632 720.064 747.884 728.207 742.026 728.207L271.689 728.207C265.831 728.207 261.083 720.064 261.083 710.019L261.083 701.684C261.083 691.639 265.831 683.496 271.689 683.496L742.026 683.496C747.884 683.496 752.632 691.639 752.632 701.684Z" fill="#24ae00" fill-rule="nonzero" opacity="1" stroke="none"/>
<path d="M745.541 2.75335e-14L754.706 2.75335e-14C765.751 2.75335e-14 774.706 8.45251 774.706 18.8792L774.706 856.121C774.706 866.547 765.751 875 754.706 875L745.541 875C734.495 875 725.541 866.547 725.541 856.121L725.541 18.8792C725.541 8.45251 734.495 2.75335e-14 745.541 2.75335e-14Z" fill="#24ae00" fill-rule="nonzero" opacity="1" stroke="none"/>
</g>
</svg>
